<svg width="110" height="32" viewBox="0 0 110 32" fill="none" xmlns="http://www.w3.org/2000/svg">
<path d="M11.005 1.11594C4.92903 1.11594 2.73585e-05 5.67294 2.73585e-05 12.1209C2.73585e-05 18.5999 4.92903 23.1259 11.005 23.1259C16.802 23.1259 21.018 18.8789 21.669 13.8879V11.1289H9.79603V13.9499H17.887C17.36 17.5769 14.911 19.9329 11.005 19.9329C6.72703 19.9329 3.62703 16.8639 3.62703 12.1209C3.62703 7.37794 6.72703 4.33994 11.005 4.33994C13.578 4.33994 15.624 5.42494 16.771 7.59494H21.018C19.375 3.37894 15.5 1.11594 11.005 1.11594ZM41.4296 14.3839C41.4296 9.02094 37.5856 5.57994 32.7186 5.57994C27.8516 5.57994 24.0076 9.02094 24.0076 14.3839C24.0076 19.7469 27.6966 23.2189 32.5636 23.2189C37.4616 23.2189 41.4296 19.7469 41.4296 14.3839ZM27.6036 14.3839C27.6036 10.5089 29.9906 8.64894 32.6566 8.64894C35.2916 8.64894 37.8026 10.5089 37.8026 14.3839C37.8026 18.2589 35.1986 20.1499 32.5636 20.1499C29.8976 20.1499 27.6036 18.2589 27.6036 14.3839ZM61.1981 14.3839C61.1981 9.02094 57.3541 5.57994 52.4871 5.57994C47.6201 5.57994 43.7761 9.02094 43.7761 14.3839C43.7761 19.7469 47.4651 23.2189 52.3321 23.2189C57.2301 23.2189 61.1981 19.7469 61.1981 14.3839ZM47.3721 14.3839C47.3721 10.5089 49.7591 8.64894 52.4251 8.64894C55.0601 8.64894 57.5711 10.5089 57.5711 14.3839C57.5711 18.2589 54.9671 20.1499 52.3321 20.1499C49.6661 20.1499 47.3721 18.2589 47.3721 14.3839ZM63.5137 14.3219C63.5137 19.5919 67.0787 23.2189 71.5737 23.2189C74.3637 23.2189 76.4097 21.8239 77.4947 20.3669V23.2189C77.4947 26.6289 75.4487 28.3029 72.7207 28.3029C70.2717 28.3029 68.3807 27.0939 67.8537 25.3269H64.3507C64.7847 29.1089 68.1637 31.3719 72.7207 31.3719C78.0527 31.3719 81.0597 27.8689 81.0597 23.2189V5.85894H77.4947V8.33894C76.4407 6.88194 74.3637 5.57994 71.5737 5.57994C67.0787 5.57994 63.5137 9.05194 63.5137 14.3219ZM77.4947 14.3839C77.4947 18.0729 74.9837 20.1499 72.3177 20.1499C69.6827 20.1499 67.1407 18.0109 67.1407 14.3219C67.1407 10.6329 69.6827 8.64894 72.3177 8.64894C74.9837 8.64894 77.4947 10.7259 77.4947 14.3839ZM85.7015 22.9399H89.2355V-5.88894e-05H85.7015V22.9399ZM101.067 8.55594C103.702 8.55594 105.779 10.2299 105.841 12.8649H96.3863C96.7583 10.1679 98.6803 8.55594 101.067 8.55594ZM109.065 17.8559H105.252C104.601 19.1889 103.392 20.2429 101.222 20.2429C98.6183 20.2429 96.6033 18.5379 96.3553 15.7169H109.406C109.499 15.1279 109.53 14.5699 109.53 13.9809C109.53 8.95894 106.089 5.57994 101.222 5.57994C96.1693 5.57994 92.6973 9.02094 92.6973 14.3839C92.6973 19.7469 96.3243 23.2189 101.222 23.2189C105.407 23.2189 108.104 20.8319 109.065 17.8559Z" fill="#143C3C"/>
</svg>
